<?xml version="1.0" standalone="no"?>
<!DOCTYPE svg PUBLIC "-//W3C//DTD SVG 20010904//EN"
 "http://www.w3.org/TR/2001/REC-SVG-20010904/DTD/svg10.dtd">
<svg version="1.0" xmlns="http://www.w3.org/2000/svg"
 width="311.000000pt" height="311.000000pt" viewBox="0 0 311.000000 311.000000"
 preserveAspectRatio="xMidYMid meet">
<metadata>
Created by potrace 1.11, written by Peter Selinger 2001-2013
</metadata>
<g transform="translate(0.000000,311.000000) scale(0.100000,-0.100000)"
fill="#000000" stroke="none">
<path d="M1380 2939 c-228 -25 -410 -92 -605 -222 -170 -114 -328 -284 -430
-462 -47 -83 -98 -199 -111 -250 l-7 -30 24 21 c58 52 279 185 429 260 449
221 870 278 1286 174 250 -63 519 -185 769 -349 55 -36 112 -73 127 -83 l27
-17 -25 65 c-173 462 -576 799 -1054 885 -76 13 -336 18 -430 8z"/>
<path d="M1431 2219 c-182 -31 -369 -167 -463 -339 -213 -388 14 -882 447
-974 87 -19 249 -14 325 9 280 86 473 334 484 618 10 280 -155 538 -412 646
-108 45 -255 61 -381 40z m284 -184 c76 -26 179 -98 225 -156 81 -103 113
-192 113 -319 1 -262 -196 -478 -455 -497 -394 -29 -662 369 -487 725 57 116
186 220 315 256 74 20 218 15 289 -9z"/>
<path d="M1467 1949 c-112 -26 -217 -111 -269 -217 -31 -62 -33 -73 -33 -172
0 -99 2 -110 33 -172 148 -301 572 -300 716 2 29 60 31 73 31 170 0 97 -2 110
-31 170 -81 169 -269 261 -447 219z"/>
<path d="M236 1098 c50 -130 150 -315 209 -385 161 -194 306 -312 500 -408
199 -98 346 -129 605 -129 281 -1 419 30 645 145 301 152 548 430 670 753 l25
67 -87 -59 c-292 -195 -569 -326 -828 -391 -75 -18 -102 -23 -200 -37 -22 -3
-51 -8 -65 -10 -33 -5 -278 -5 -310 0 -14 2 -48 7 -76 10 -28 3 -98 17 -155
30 -275 65 -581 206 -849 391 -108 74 -103 72 -84 23z"/>
</g>
</svg>
