<svg id="Component_5_1" data-name="Component 5 – 1" xmlns="http://www.w3.org/2000/svg" width="51.553" height="22.059" viewBox="0 0 51.553 22.059">
  <path id="Path_15" data-name="Path 15" d="M269.69,514.612h-4.548s-4.252,10.326-5.8,15.113V514.612h-9.221s-4.252,10.326-5.8,15.113V514.612H235.1s-4.593,11.154-5.967,15.651V514.612H222.81v22.059h10.306s3.18-8.715,4.882-13.788v13.788h10.137s.918-2.516,2.032-5.632h2.85v5.632h10.137s.918-2.516,2.032-5.632h2.85v5.632h6.328V514.612ZM251.5,527.284c.551-1.568,1.083-3.1,1.518-4.4v4.4Zm15.019,0c.551-1.568,1.083-3.1,1.518-4.4v4.4Z" transform="translate(-222.81 -514.612)" fill="#fff"/>
</svg>
