<svg id="Component_6_1" data-name="Component 6 – 1" xmlns="http://www.w3.org/2000/svg" width="76" height="83.091" viewBox="0 0 76 83.091">
  <path id="Path_11" data-name="Path 11" d="M694.14,765.135a2.713,2.713,0,0,0-3.771,0l-5.036,5.028a2.611,2.611,0,0,0,3.7,3.69l3.225-3.22,3.226,3.22a2.611,2.611,0,1,0,3.7-3.69Z" transform="translate(-654.215 -721.134)" fill="#fff"/>
  <path id="Path_12" data-name="Path 12" d="M527.728,575.612A11.057,11.057,0,1,0,538.8,586.669,11.079,11.079,0,0,0,527.728,575.612Zm0,16.9a5.839,5.839,0,1,1,5.848-5.838A5.85,5.85,0,0,1,527.728,592.507Z" transform="translate(-505.805 -554.262)" fill="#fff"/>
  <path id="Path_13" data-name="Path 13" d="M816.959,586.669a11.076,11.076,0,1,0-11.076,11.057A11.079,11.079,0,0,0,816.959,586.669Zm-11.076,5.838a5.839,5.839,0,1,1,5.849-5.838A5.85,5.85,0,0,1,805.883,592.507Z" transform="translate(-751.65 -554.262)" fill="#fff"/>
  <path id="Path_14" data-name="Path 14" d="M499.26,429.436a38,38,0,1,0-64.87,26.825,38.626,38.626,0,0,0,3.332,2.961v6.155a2.614,2.614,0,0,0,5.227,0v-2.683a37.537,37.537,0,0,0,5.235,2.38v6.907a2.614,2.614,0,0,0,5.227,0v-5.418a38.215,38.215,0,0,0,5.235.718v4.7a2.614,2.614,0,0,0,5.227,0v-4.7a38.223,38.223,0,0,0,5.235-.718v5.418a2.613,2.613,0,0,0,5.227,0v-6.907a37.528,37.528,0,0,0,5.235-2.38v2.683a2.614,2.614,0,0,0,5.227,0v-6.155a38.6,38.6,0,0,0,3.332-2.961A37.655,37.655,0,0,0,499.26,429.436ZM482.184,448.33a2.611,2.611,0,0,0-2.614,2.609v5.619a32.777,32.777,0,0,1-5.235,2.875v-1.89a2.613,2.613,0,0,0-5.227,0V461.2a32.652,32.652,0,0,1-5.235.847v-4.506a2.614,2.614,0,0,0-5.227,0v4.506a32.651,32.651,0,0,1-5.235-.847v-3.659a2.614,2.614,0,0,0-5.227,0v1.89a32.765,32.765,0,0,1-5.235-2.875v-5.619a2.614,2.614,0,0,0-5.227,0v1.238a32.773,32.773,0,1,1,47.075,0v-1.238A2.611,2.611,0,0,0,482.184,448.33Z" transform="translate(-423.26 -391.5)" fill="#fff"/>
</svg>
