<?xml version="1.0" standalone="no"?>
<!DOCTYPE svg PUBLIC "-//W3C//DTD SVG 20010904//EN"
 "http://www.w3.org/TR/2001/REC-SVG-20010904/DTD/svg10.dtd">
<svg version="1.0" xmlns="http://www.w3.org/2000/svg"
 width="311.000000pt" height="311.000000pt" viewBox="0 0 311.000000 311.000000"
 preserveAspectRatio="xMidYMid meet">
<metadata>
Created by potrace 1.11, written by Peter Selinger 2001-2013
</metadata>
<g transform="translate(0.000000,311.000000) scale(0.100000,-0.100000)"
fill="#000000" stroke="none">
<path d="M1380 2939 c-228 -25 -410 -92 -605 -222 -170 -114 -328 -284 -430
-462 -47 -83 -98 -199 -111 -250 l-7 -30 24 21 c58 52 279 185 429 260 449
221 870 278 1286 174 250 -63 519 -185 769 -349 55 -36 112 -73 127 -83 l27
-17 -25 65 c-173 462 -576 799 -1054 885 -76 13 -336 18 -430 8z"/>
<path d="M1425 2214 c-315 -65 -536 -336 -536 -654 0 -250 146 -487 366 -598
140 -70 340 -88 485 -43 147 45 258 121 346 236 201 264 177 640 -57 874 -78
78 -177 138 -284 171 -84 26 -232 33 -320 14z m355 -206 c43 -21 87 -54 130
-98 106 -108 150 -221 145 -371 -11 -319 -318 -545 -630 -464 -252 66 -414
328 -361 584 46 222 241 390 461 400 33 1 61 4 63 6 9 8 134 -29 192 -57z"/>
<path d="M1451 1944 c-76 -20 -129 -50 -186 -108 -187 -188 -136 -509 102
-630 90 -45 221 -51 319 -15 258 97 338 428 151 634 -95 106 -250 153 -386
119z"/>
<path d="M236 1098 c50 -130 150 -315 209 -385 227 -274 478 -438 775 -508
173 -40 509 -41 672 0 235 58 450 178 639 355 126 118 266 333 334 514 l25 67
-87 -59 c-292 -195 -569 -326 -828 -391 -75 -18 -102 -23 -200 -37 -22 -3 -51
-8 -65 -10 -33 -5 -278 -5 -310 0 -14 2 -48 7 -76 10 -28 3 -98 17 -155 30
-275 65 -581 206 -849 391 -108 74 -103 72 -84 23z"/>
</g>
</svg>
